HIERARCHY
ROOT hip
{
	OFFSET 0.000000 0.000000 0.000000 
	CHANNELS 6 Xposition Yposition Zposition Xrotation Zrotation Yrotation
	JOINT abdomen
	{
		OFFSET 0.000000 3.402643 0.000000 
		CHANNELS 3 Xrotation Zrotation Yrotation
		JOINT chest
		{
			OFFSET 0.000000 8.438565 -0.680529 
			CHANNELS 3 Xrotation Zrotation Yrotation
			JOINT neck
			{
				OFFSET 0.000000 10.207942 -0.272212 
				CHANNELS 3 Xrotation Zrotation Yrotation
				JOINT head
				{
					OFFSET 0.000000 3.130431 0.000000 
					CHANNELS 3 Xrotation Zrotation Yrotation
					End Site
					{
						OFFSET 0.000000 3.130435 0.000000 
					}
				}
			}
			JOINT lCollar
			{
				OFFSET 3.470700 6.669187 -0.816635 
				CHANNELS 3 Yrotation Zrotation Xrotation
				JOINT lShldr
				{
					OFFSET 3.198488 0.000000 0.000000 
					CHANNELS 3 Zrotation Yrotation Xrotation
					JOINT lForeArm
					{
						OFFSET 10.139888 0.000000 0.000000 
						CHANNELS 3 Yrotation Zrotation Xrotation
						JOINT lHand
						{
							OFFSET 8.370511 0.000000 0.000000 
							CHANNELS 3 Zrotation Yrotation Xrotation
							End Site
							{
								OFFSET 4.083176 0.000000 0.000000 
							}
						}
					}
				}
			}
			JOINT rCollar
			{
				OFFSET -3.470700 6.669187 -0.816635 
				CHANNELS 3 Yrotation Zrotation Xrotation
				JOINT rShldr
				{
					OFFSET -3.198488 0.000000 0.000000 
					CHANNELS 3 Zrotation Yrotation Xrotation
					JOINT rForeArm
					{
						OFFSET -10.139888 0.000000 0.000000 
						CHANNELS 3 Yrotation Zrotation Xrotation
						JOINT rHand
						{
							OFFSET -8.370511 0.000000 0.000000 
							CHANNELS 3 Zrotation Yrotation Xrotation
							End Site
							{
								OFFSET -4.083176 0.000000 0.000000 
							}
						}
					}
				}
			}
		}
	}
	JOINT lThigh
	{
		OFFSET 5.308129 -1.633274 1.361059 
		CHANNELS 3 Xrotation Zrotation Yrotation
		JOINT lShin
		{
			OFFSET -2.041588 -20.007561 0.000000 
			CHANNELS 3 Xrotation Zrotation Yrotation
			JOINT lFoot
			{
				OFFSET 0.000000 -19.190928 -1.224953 
				CHANNELS 3 Xrotation Yrotation Zrotation
				End Site
				{
					OFFSET 0.000000 -2.449906 4.627600 
				}
			}
		}
	}
	JOINT rThigh
	{
		OFFSET -5.308129 -1.633274 1.361059 
		CHANNELS 3 Xrotation Zrotation Yrotation
		JOINT rShin
		{
			OFFSET 2.041588 -20.007561 0.000000 
			CHANNELS 3 Xrotation Zrotation Yrotation
			JOINT rFoot
			{
				OFFSET 0.000000 -19.190928 -1.224953 
				CHANNELS 3 Xrotation Yrotation Zrotation
				End Site
				{
					OFFSET 0.000000 -2.449906 4.627600 
				}
			}
		}
	}
}
MOTION
Frames: 18
Frame Time: 0.016667
-1.227678 47.594116 -0.675575 -9.417771 1.557005 -7.991150 19.211304 1.180533 2.481149 -7.750127 -3.770280 5.715142 59.142948 3.632805 -0.116952 -30.989534 -0.306328 11.406398 7.100503 10.847981 23.061192 -2.014618 -58.858856 -20.160673 -140.661728 47.542377 30.434650 -38.792652 -14.687629 2.067004 -7.520791 -8.044559 23.480330 34.947430 -2.777702 103.736732 87.387085 -41.569225 28.847639 68.809265 49.950787 37.271378 -14.066294 5.736630 18.302467 61.590527 5.628474 -1.433437 -4.682945 -12.014547 -1.739144 -11.796551 -10.068087 -1.517540 49.240612 5.643914 4.710230 -5.338193 6.513178 12.633393 
-1.382663 47.556454 -0.741677 -9.263398 0.850561 -8.213719 19.211304 1.180533 2.481149 -7.677771 -3.167055 5.848699 59.182304 3.808587 -0.107185 -30.876842 -0.277504 11.513772 7.060520 11.129104 23.031662 -0.019352 -59.018791 -21.258017 -141.215225 48.042114 30.466555 -40.431225 -15.371701 2.576255 -7.559271 -7.853750 23.500774 35.049782 -1.663241 103.013702 88.545830 -41.540470 28.867153 69.632813 49.627239 36.886894 -18.899897 7.484513 18.362846 69.088303 6.887896 -1.328478 -4.516622 -12.043247 -0.756509 -11.265967 -9.245092 -1.280786 48.239880 6.405816 4.784706 -6.648959 5.581398 12.404915 
-1.502923 47.562569 -0.829043 -9.258987 0.202802 -8.544971 19.211304 1.180533 2.481149 -7.358025 -2.564148 5.972597 59.143501 4.033197 -0.097414 -30.906754 -0.277378 11.640724 6.968370 11.218003 23.042269 2.028992 -58.826389 -22.306835 -142.116409 48.362228 30.819897 -41.715477 -15.422441 2.590749 -7.522082 -7.437023 23.569136 34.728466 -0.713556 102.135780 89.462166 -40.768196 28.660324 70.153809 49.807411 36.683395 -23.916008 8.984684 18.226088 76.308022 7.939608 -1.335384 -4.907262 -11.945264 -0.321198 -11.111835 -8.436468 -1.045641 47.810150 6.952837 4.889627 -6.941986 4.619385 12.065949 
-1.623175 47.568684 -0.916403 -9.265109 -0.453487 -8.877291 19.211304 1.180533 2.481149 -7.026935 -1.971216 6.097184 59.095745 4.257809 -0.077909 -30.934671 -0.267691 11.767675 6.874248 11.308059 23.064322 4.076376 -58.609062 -23.366558 -143.042175 48.681278 31.198248 -42.993061 -15.474056 2.615679 -7.481981 -7.029127 23.638571 34.389393 0.229448 101.258194 90.373627 -39.995834 28.456350 70.661186 49.993164 36.471684 -28.959049 10.464090 17.960979 83.572899 9.005090 -1.163774 -5.302086 -11.860650 0.121357 -10.956381 -7.626541 -0.808244 47.383949 7.489500 5.015871 -7.239263 3.658912 11.744161 
-1.706341 47.606976 -0.993282 -9.085687 -0.877120 -9.249196 19.211304 1.180533 2.481149 -6.977038 -1.572830 6.183858 59.066917 4.472653 -0.068151 -31.052908 -0.267470 11.992283 6.662400 11.186785 23.120424 5.645803 -58.027260 -24.088198 -144.175598 48.336170 31.732044 -43.586922 -14.999041 2.072436 -7.446781 -6.414709 23.733885 33.792099 0.861243 100.418098 90.638763 -38.532188 27.067108 71.327759 50.102615 36.955631 -33.376381 11.472726 17.501148 89.076897 9.247696 -1.150028 -5.446208 -11.778134 0.376246 -11.039177 -7.076624 -0.630670 46.991165 7.955291 5.081868 -7.294276 2.986556 10.975577 
-1.789504 47.645252 -1.070156 -8.902613 -1.290229 -9.611974 19.211304 1.180533 2.481149 -6.916169 -1.174572 6.270811 59.048729 4.697264 -0.048664 -31.169077 -0.257701 12.216892 6.445034 11.075199 23.189587 7.168834 -57.447990 -24.754080 -145.304718 47.990017 32.265213 -44.178932 -14.531082 1.523456 -7.401748 -5.803868 23.822533 33.176662 1.480609 99.573273 90.940849 -37.065308 25.697206 71.989861 50.215359 37.433384 -37.828854 12.449080 16.969976 94.594620 9.510505 -1.102974 -5.587439 -11.727575 0.627928 -11.136416 -6.529478 -0.513507 46.626911 8.380940 5.181381 -7.366537 2.310722 10.205470 
-1.848964 47.705414 -1.110059 -9.145712 -1.491426 -9.837483 19.211304 1.180533 2.481149 -6.501939 -1.135722 6.280381 59.011147 4.921875 -0.029189 -31.313507 -0.286003 12.519665 6.147328 10.899055 23.268009 8.732110 -56.712044 -25.414738 -146.700714 47.591183 33.055119 -44.467579 -13.813769 0.746415 -7.440466 -5.104078 23.926008 32.659363 1.893847 98.926048 90.525192 -35.419468 23.338980 72.361198 50.218067 38.440372 -40.016026 12.878394 16.652729 97.701408 9.265992 -1.142631 -5.195925 -11.935006 0.588048 -10.619861 -6.227525 -0.436865 46.093231 8.642589 5.168995 -7.473808 1.749126 9.454590 
-1.908424 47.765575 -1.149962 -9.396990 -1.692324 -10.063102 19.211304 1.180533 2.481149 -6.086441 -1.087187 6.280385 58.973732 5.156250 -0.009726 -31.448475 -0.314229 12.822445 5.854157 10.713192 23.345968 10.262138 -55.961292 -26.036108 -148.066132 47.181999 33.816315 -44.768909 -13.098327 -0.029289 -7.476847 -4.391533 24.032768 32.138905 2.299590 98.278542 90.197128 -33.768421 21.031347 72.739235 50.216846 39.443558 -42.212864 13.278821 16.324375 100.814049 9.031029 -1.190130 -4.798766 -12.157887 0.576223 -10.113026 -5.925189 -0.377236 45.539749 8.878594 5.171761 -7.606556 1.166785 8.703914 
-1.970391 47.812778 -1.167672 -9.610332 -2.074898 -10.378007 19.211304 1.180533 2.481149 -5.744859 -0.815298 6.338498 58.896481 5.302734 0.000000 -31.517429 -0.437622 13.047234 5.717903 10.619829 23.389029 11.389512 -55.343575 -26.478136 -148.582504 46.899269 33.601669 -44.616760 -12.995426 -0.361105 -7.536512 -3.873076 24.094194 32.034164 2.641917 98.016464 89.614059 -33.052578 19.135374 72.643379 50.177662 40.644402 -42.824478 13.520066 16.275248 101.924850 9.176723 -1.152971 -4.201728 -12.832450 -0.380554 -9.677605 -5.263571 -0.187624 45.134792 8.908799 5.148196 -7.629539 0.512073 8.235531 
-2.032359 47.859982 -1.185378 -9.828803 -2.456559 -10.703509 19.211304 1.180533 2.481149 -5.394048 -0.553175 6.396750 58.829056 5.449219 0.010649 -31.575342 -0.551279 13.272080 5.581814 10.526274 23.431992 12.466575 -54.712246 -26.864969 -149.114075 46.622105 33.398830 -44.455959 -12.890978 -0.692484 -7.601672 -3.368955 24.166634 31.935724 2.967158 97.761292 89.065025 -32.317314 17.270203 72.563828 50.123295 41.857113 -43.442104 13.746604 16.210443 103.036072 9.303451 -1.130912 -3.570293 -13.499812 -1.349839 -9.241066 -4.596160 -0.001911 44.711319 8.927869 5.119101 -7.692099 -0.146689 7.787143 
-2.095114 47.881363 -1.175571 -9.896020 -2.998766 -11.177792 19.211304 1.180533 2.481149 -5.255014 -0.009703 6.513672 58.760693 5.410157 0.010643 -31.561802 -0.693458 13.409095 5.644396 10.686079 23.407892 12.945077 -54.327057 -27.029928 -149.396515 46.533314 33.012486 -44.168446 -12.921087 -0.874374 -7.639536 -3.165755 24.193521 32.235786 3.174429 97.866089 88.448952 -32.305260 16.147667 72.196213 50.202305 43.048336 -42.337513 14.009217 16.535942 102.148750 9.733161 -1.016948 -3.126025 -14.257384 -2.582997 -8.958750 -3.630519 0.314556 44.384159 8.779414 5.036890 -7.694772 -0.825761 7.552320 
-2.157870 47.902740 -1.165759 -9.963975 -3.538994 -11.653580 19.211304 1.180533 2.481149 -5.124651 0.523816 6.631207 58.681644 5.361329 0.000913 -31.541466 -0.844965 13.546302 5.702034 10.833013 23.382603 13.398530 -53.939415 -27.175795 -149.671692 46.459446 32.628277 -43.879169 -12.963493 -1.054377 -7.682104 -2.952382 24.211063 32.536171 3.385794 97.962440 87.833450 -32.283009 15.035445 71.829437 50.285110 44.238617 -41.245865 14.274290 16.828489 101.219910 10.143274 -0.938542 -2.648713 -15.017076 -3.800766 -8.659557 -2.655592 0.616582 44.069305 8.622746 4.926311 -7.694159 -1.482247 7.338312 
-2.219944 47.900192 -1.128403 -9.895241 -4.226294 -12.358550 19.211304 1.180533 2.481149 -5.191582 1.338129 6.818417 58.690536 5.087891 -0.009727 -31.413013 -0.910934 13.673530 5.975939 10.989756 23.304781 13.542071 -53.709091 -27.192064 -149.703766 46.563385 32.196609 -43.762043 -13.140588 -1.025877 -7.626476 -3.075778 24.204498 33.145164 3.454437 98.387199 87.246490 -32.711071 14.209818 71.527306 50.275970 45.292660 -38.758480 14.569344 17.432751 98.512581 10.642908 -0.816755 -2.585939 -15.270185 -4.525901 -8.424832 -1.532777 0.927995 43.728180 8.427491 4.866048 -7.633115 -1.819837 7.012098 
-2.282013 47.897652 -1.091043 -9.828962 -4.909241 -13.066762 19.211304 1.180533 2.481149 -5.252348 2.161530 6.997501 58.688938 4.814453 -0.029194 -31.284855 -0.976826 13.800778 6.247135 11.131962 23.215708 13.670949 -53.483486 -27.198713 -149.719467 46.672543 31.766930 -43.643112 -13.317579 -1.011732 -7.570877 -3.199190 24.197517 33.758102 3.523588 98.804703 86.649788 -33.132168 13.366272 71.240471 50.254436 46.365910 -36.266052 14.831023 18.048141 95.767189 11.141223 -0.744782 -2.517286 -15.484787 -5.266353 -8.159483 -0.400071 1.226129 43.396198 8.234974 4.819163 -7.600777 -2.167863 6.660240 
-2.301313 47.888676 -1.025138 -9.723909 -5.327400 -13.948841 19.211304 1.180533 2.481149 -5.460302 2.868137 7.157516 58.802818 4.228512 -0.077912 -31.180738 -0.786888 13.878166 6.675909 11.232974 23.112940 13.413411 -53.320812 -27.061577 -149.535843 46.627975 30.934870 -43.385181 -13.394395 -1.127879 -7.358338 -3.576494 24.152229 34.550304 3.503232 99.393196 86.034897 -33.835201 12.732457 71.050285 50.060829 46.954182 -32.259556 14.789024 18.763474 90.889496 10.857987 -0.811066 -2.641157 -15.319395 -5.270680 -8.077847 0.195046 1.421789 43.382397 8.123980 4.795656 -7.213130 -1.804491 6.716343 
-2.320601 47.879704 -0.959230 -9.615444 -5.741011 -14.832553 19.211304 1.180533 2.481149 -5.674046 3.574232 7.319016 58.918324 3.642571 -0.116951 -31.076111 -0.597075 13.955832 7.111040 11.322503 22.997684 13.137452 -53.172951 -26.901457 -149.356186 46.580658 30.109949 -43.117096 -13.463244 -1.251497 -7.141730 -3.964313 24.117739 35.347157 3.470355 99.977325 85.408035 -34.542034 12.081456 70.849258 49.875298 47.532135 -28.257090 14.672875 19.459255 86.000084 10.546839 -0.839076 -2.765971 -15.161815 -5.277804 -7.995519 0.810389 1.608365 43.388752 8.007779 4.782275 -6.826723 -1.461699 6.781632 
-2.269904 47.864994 -0.877831 -9.545929 -5.585719 -15.701944 19.211304 1.180533 2.481149 -5.994947 3.786909 7.370264 59.121952 2.900377 -0.175556 -31.050220 -0.255814 14.023557 7.593168 11.296186 22.892673 12.667764 -52.965225 -26.644228 -149.042526 46.345882 29.038641 -42.856232 -13.573350 -1.348878 -6.762345 -4.429435 24.094639 36.175179 3.311963 100.646545 84.743187 -35.576469 11.706321 70.815941 49.517323 47.684635 -22.983486 13.578197 19.888670 78.889832 9.249218 -1.102438 -3.219411 -15.255847 -5.363829 -8.528353 0.546348 1.549712 44.298126 8.056640 4.903325 -5.690346 -0.642163 7.255356 
-2.219195 47.850288 -0.796437 -9.472897 -5.420630 -16.580202 19.211304 1.180533 2.481149 -6.313520 4.009130 7.430738 59.327145 2.148419 -0.234210 -31.011377 0.094717 14.091825 8.077271 11.267149 22.775137 12.194400 -52.769569 -26.379133 -148.747757 46.113297 27.993082 -42.595127 -13.675792 -1.453951 -6.392282 -4.899025 24.072519 36.998444 3.149081 101.308411 84.062866 -36.586781 11.305537 70.768326 49.164482 47.814728 -17.759472 12.435192 20.209864 71.807106 7.931550 -1.221601 -3.647946 -15.331923 -5.451405 -9.069798 0.273330 1.493117 45.191956 8.075450 5.001933 -4.534257 0.199699 7.738766 
